PathFileType	4	(X/Y/Z)	jw_ngait_og1.trc	
DataRate	CameraRate	NumFrames	NumMarkers	Units	OrigDataRate	OrigDataStartFrame	OrigNumFrames	
120.00	120.00	4	56	mm	120.00	319	327	
Frame#	Time	Sternum			Neck			RShoulder			LShoulder			Xiphoid			Thoracic			RAsis			LAsis			RPsis			LPsis			Lumbar			RElbow			RWrist			RRadius			RUlna			LElbow			LWrist			LUlna			LRadius			LThighSuperior			LThighInferior			LThighLateral			LPatella			LShankSuperior			LShankInferior			LShankLateral			RThighSuperior			RThighInferior			RThighLateral			RPatella			RShankSuperior			RShankInferior			RShankLateral			RHeel			RToe			RMidfootMedial			RMidfootLateral			RHindfoot			RMidfootSuperior			RToeMedial			RToeLateral			LHeel			LToe			LMidfootMedial			LMidfootLateral			LHindfoot			LMidfootSuperior			LToeMedial			LToeLateral			LShoulderCenter			Oglobal			RShoulderCenter			Sacral			Xglobal			Yglobal			Zglobal			
		X1	Y1	Z1	X2	Y2	Z2	X3	Y3	Z3	X4	Y4	Z4	X5	Y5	Z5	X6	Y6	Z6	X7	Y7	Z7	X8	Y8	Z8	X9	Y9	Z9	X10	Y10	Z10	X11	Y11	Z11	X12	Y12	Z12	X13	Y13	Z13	X14	Y14	Z14	X15	Y15	Z15	X16	Y16	Z16	X17	Y17	Z17	X18	Y18	Z18	X19	Y19	Z19	X20	Y20	Z20	X21	Y21	Z21	X22	Y22	Z22	X23	Y23	Z23	X24	Y24	Z24	X25	Y25	Z25	X26	Y26	Z26	X27	Y27	Z27	X28	Y28	Z28	X29	Y29	Z29	X30	Y30	Z30	X31	Y31	Z31	X32	Y32	Z32	X33	Y33	Z33	X34	Y34	Z34	X35	Y35	Z35	X36	Y36	Z36	X37	Y37	Z37	X38	Y38	Z38	X39	Y39	Z39	X40	Y40	Z40	X41	Y41	Z41	X42	Y42	Z42	X43	Y43	Z43	X44	Y44	Z44	X45	Y45	Z45	X46	Y46	Z46	X47	Y47	Z47	X48	Y48	Z48	X49	Y49	Z49	X50	Y50	Z50	X51	Y51	Z51	X52	Y52	Z52	X53	Y53	Z53	X54	Y54	Z54	X55	Y55	Z55	X56	Y56	Z56	

205	1.700	-441.44919	123.64331	1341.67896	-307.17300	126.62509	1455.75598	-367.40164	302.76459	1396.42737	-366.93204	-59.63404	1406.90417	-439.64545	114.70550	1226.57996	-219.18994	110.61687	1264.84717	-425.98770	245.35672	1002.38129	-416.01926	-25.20885	990.53998	-211.53053	134.12711	971.41327	-211.07993	74.96833	975.06702	-211.08264	109.17339	1042.77332	-322.33960	379.40561	1062.61780	-435.32611	362.41241	821.02740	-450.85849	327.31772	831.05237	-387.50623	358.90714	814.23749	-361.90701	-162.54498	1084.66296	-524.40509	-168.29007	866.52557	-479.39941	-165.41434	843.21490	-528.73120	-131.49612	891.27942	-352.64249	-66.56738	814.13940	-325.32495	-16.96473	569.49103	-401.89923	-2.63819	678.35223	-352.84799	39.52440	494.23691	-287.07355	-5.35911	423.00604	-236.73396	30.37018	171.00421	-294.11685	71.36143	292.31638	-422.32324	276.86597	815.78528	-575.94427	247.09572	622.54657	-562.17230	221.30038	724.93225	-632.27100	198.92625	561.27081	-542.38708	267.54648	423.79977	-582.48114	219.25697	193.09485	-610.53748	179.45287	299.86530	-515.74811	176.71259	58.91751	-805.11273	221.17610	122.40466	-733.03162	157.39450	99.56849	-703.51776	268.37292	95.79870	-631.01373	256.97635	59.27995	-668.41858	201.54608	156.17955	-771.24591	173.12207	104.37307	-761.15619	260.94394	108.66939	-128.74663	69.40468	51.96999	-426.96271	44.57796	53.24139	-339.74695	108.93646	25.96222	-323.19800	-14.30627	34.48606	-223.39076	1.63995	22.71192	-298.85513	57.08956	107.05235	-388.58911	85.98289	42.91505	-373.97110	-2.26394	43.40749	-338.27243	-51.34108	1362.55249	0.00000	0.00000	0.00000	-340.52371	300.53830	1353.14111	-211.30524	104.54771	973.24011	200.00000	0.00000	0.00000	0.00000	200.00000	0.00000	0.00000	0.00000	200.00000 
206	1.708	-451.47339	124.07350	1339.89990	-317.15475	126.81176	1453.80139	-376.87851	302.95706	1394.70996	-377.47650	-59.33769	1405.34558	-449.69043	115.09097	1224.79077	-229.29930	110.60974	1263.03101	-435.50229	245.33835	1000.60571	-426.43518	-25.00614	988.93060	-222.09871	133.73814	969.38898	-221.39935	74.92538	973.07709	-220.96826	108.61882	1040.70117	-331.36716	379.70724	1060.99695	-444.30591	362.91962	819.26288	-459.93835	327.82629	829.42371	-396.46613	359.67654	812.43347	-374.82404	-163.04628	1083.44177	-538.64850	-167.85576	866.39978	-493.80133	-165.63918	842.73810	-542.51062	-131.07764	891.18396	-360.68109	-67.01672	812.91333	-328.98584	-16.59322	569.01733	-407.23087	-3.04470	676.46167	-355.84808	39.64501	493.43372	-289.22498	-4.89095	423.12683	-237.73874	30.76154	171.13402	-295.92032	71.37691	292.15405	-431.27530	277.24985	813.36230	-583.17755	247.86423	619.00702	-570.29791	221.74715	721.08966	-639.61414	200.28302	560.44379	-555.34717	267.09808	419.20645	-608.94427	219.62878	190.89957	-632.06525	180.46994	299.09656	-550.85870	175.86459	53.01735	-835.34204	225.16298	132.77713	-765.57147	159.68127	106.63046	-735.05066	270.23874	99.77348	-665.06793	257.70938	59.06462	-697.30396	203.70152	158.85262	-803.33844	176.60239	112.94975	-791.90881	264.04636	115.97140	-128.90295	69.44308	52.28652	-427.01782	44.57343	53.05865	-339.82175	108.94308	25.57855	-323.28738	-14.29495	34.19816	-223.26465	1.72820	22.74217	-299.17752	57.12900	106.81548	-388.56653	85.96189	42.71496	-374.03958	-2.39146	43.15739	-348.79901	-51.20743	1360.76245	0.00000	0.00000	0.00000	-350.01285	300.67285	1351.19556	-221.74902	104.33176	971.23303	200.00000	0.00000	0.00000	0.00000	200.00000	0.00000	0.00000	0.00000	200.00000 
207	1.717	-461.52609	124.45544	1337.96265	-327.38116	126.89482	1451.76587	-386.56644	303.31699	1392.73608	-388.04709	-58.98211	1403.46790	-459.88672	115.43613	1222.84473	-239.33990	110.88528	1260.85706	-445.47031	245.46515	998.66760	-436.88898	-24.77685	987.31604	-232.57133	133.83424	967.14563	-232.08517	74.92408	970.93420	-231.07967	108.49983	1038.45642	-340.56851	380.10040	1059.21167	-453.32547	363.52231	817.31299	-469.02335	328.47522	827.51801	-405.49191	360.15967	810.62274	-387.44788	-163.41002	1082.05957	-552.88702	-167.36688	866.26208	-508.39731	-166.25525	842.02960	-556.12640	-130.43527	890.84760	-368.57339	-67.16194	811.80902	-332.85855	-16.24043	568.46149	-413.15390	-2.99800	675.22894	-359.38025	39.90462	492.74518	-291.57172	-4.40946	423.18237	-238.42464	31.38522	171.28696	-297.74197	71.39980	291.96899	-440.15964	277.80737	810.69543	-590.21234	248.79968	615.05963	-578.31226	222.25345	716.87231	-646.62323	201.50880	559.05493	-568.04767	266.48257	414.64609	-634.84344	220.66286	189.45998	-652.97809	181.74947	298.69684	-585.57898	175.27463	48.21788	-864.35577	229.32631	143.59485	-797.09088	162.74915	114.12424	-765.49500	272.77750	104.27765	-698.10071	258.74893	59.86432	-725.47363	206.36369	161.96704	-834.20697	180.41145	122.60127	-821.35358	267.62604	124.06824	-129.22420	69.32280	52.82657	-426.31946	44.79980	53.09424	-339.98508	109.23084	25.48608	-323.67896	-14.05506	33.85223	-223.16754	1.89154	22.67582	-299.54572	57.15837	106.68176	-388.68649	85.89905	42.51336	-374.17795	-2.52365	42.93665	-359.28278	-51.06883	1358.89624	0.00000	0.00000	0.00000	-359.63953	300.81079	1349.23572	-232.32825	104.37917	969.03992	200.00000	0.00000	0.00000	0.00000	200.00000	0.00000	0.00000	0.00000	200.00000 
208	1.725	-471.78217	124.94476	1335.66846	-337.43481	127.30837	1449.51526	-396.34369	303.68851	1390.71082	-398.59729	-58.42019	1401.52356	-470.10330	115.77601	1220.72974	-249.62769	111.05042	1258.63428	-455.99823	245.57907	996.45404	-447.44366	-24.53379	985.39038	-243.17799	133.98036	964.76862	-242.74800	75.00087	968.56598	-241.55272	108.72359	1036.07214	-349.53308	380.51581	1057.10352	-462.11322	364.22290	815.18994	-477.69318	328.94232	825.15186	-413.94385	361.04153	808.92786	-399.97513	-163.59741	1080.46729	-566.86005	-166.67113	865.60431	-522.21063	-165.66867	841.27252	-569.60620	-129.65817	890.16302	-376.75323	-67.41664	810.67194	-336.94443	-15.76432	567.95959	-419.36646	-3.12622	673.42206	-362.74582	40.21688	491.76611	-294.10501	-3.87465	423.30722	-238.62251	30.30203	173.05078	-299.84903	71.56203	291.82993	-449.56757	278.36258	807.56500	-596.86023	249.53798	610.91083	-585.86920	222.39064	712.08661	-652.98291	202.17218	557.14282	-580.23090	265.93668	410.20541	-659.78662	222.05093	188.86118	-673.43683	183.03978	298.80618	-619.46710	175.00972	44.82185	-891.43707	233.81192	154.62894	-827.13690	165.98079	122.47214	-794.81293	275.47003	109.48133	-730.07172	260.03024	61.50710	-752.34943	209.23071	165.62044	-863.56073	184.25185	132.67986	-849.27832	271.05771	132.18918	-129.44522	69.50082	53.25039	-427.15292	44.35426	52.46896	-340.13089	109.18439	25.01809	-323.74002	-14.07946	33.54215	-223.35538	1.91800	22.78746	-300.01767	57.20778	106.43075	-388.84055	85.87577	42.35033	-374.21408	-2.59541	42.64578	-369.90616	-50.79419	1356.59180	0.00000	0.00000	0.00000	-369.51071	301.08313	1346.84827	-242.96300	104.49062	966.66730	200.00000	0.00000	0.00000	0.00000	200.00000	0.00000	0.00000	0.00000	200.00000 
